<svg id="Layer_1" data-name="Layer 1" xmlns="http://www.w3.org/2000/svg" xmlns:xlink="http://www.w3.org/1999/xlink" viewBox="10.23 2.15 141.57 44.1"><defs><style>.cls-1{fill:#91c453;}.cls-2{fill:#91c554;}.cls-3{fill:url(#linear-gradient);}.cls-4{fill:#676767;}</style><style class="darkreader darkreader--sync" media="screen"/><linearGradient id="linear-gradient" x1="-69.3" y1="120.7" x2="-69.23" y2="120.7" gradientTransform="matrix(14.94, 0, 0, -12.95, 1079.91, 1571.27)" gradientUnits="userSpaceOnUse"><stop offset="0" stop-color="#91c453" style="--darkreader-inline-stopcolor: #6e8d30;" data-darkreader-inline-stopcolor=""/><stop offset="0.18" stop-color="#7cb850" style="--darkreader-inline-stopcolor: #698d39;" data-darkreader-inline-stopcolor=""/><stop offset="0.55" stop-color="#479947" style="--darkreader-inline-stopcolor: #397a39;" data-darkreader-inline-stopcolor=""/><stop offset="1" stop-color="#006f3c" style="--darkreader-inline-stopcolor: #005930;" data-darkreader-inline-stopcolor=""/></linearGradient></defs><title>logo</title><path class="cls-1" d="M136.8,36.21a5,5,0,0,0,5-5h0a5,5,0,1,0-10,0h0A5,5,0,0,0,136.8,36.21Z"/><path class="cls-2" d="M146.76,2.17h0a5,5,0,0,0-3.56,1.5L133,13.91h0a5,5,0,0,1-6.06.34l2.88,2.88c.21.21,2.68,2.71,3.58,3.58a5,5,0,0,0,7-.08l9.89-9.89a5,5,0,0,0-3.46-8.56Z"/><path class="cls-3" d="M126.9,14.23a5,5,0,0,0,6-.34h0l3.85-3.84h0l-6.37-6.37A4.92,4.92,0,0,0,127,2.16h0a5,5,0,0,0-5.06,5h0a4.94,4.94,0,0,0,1.5,3.55Z"/><path class="cls-4" d="M24.48,23.07a7.48,7.48,0,0,0-4.89-1.33,47,47,0,0,0-8.57.84l.42,3q4.49-.35,7.17-.35a4.42,4.42,0,0,1,2.49.49,2.47,2.47,0,0,1,.66,2v1H15.32a5.68,5.68,0,0,0-3.74,1.12,3.93,3.93,0,0,0-1.33,3.19V34.8a4.62,4.62,0,0,0,1.5,3.66,5.78,5.78,0,0,0,3.92,1.31,8.47,8.47,0,0,0,6.55-3l.45,2.62H26V27.73Q26,24.4,24.48,23.07ZM21.76,34.31a7.93,7.93,0,0,1-5,2c-1.49,0-2.24-.7-2.24-2.1v-.67a2.16,2.16,0,0,1,.41-1.4,1.83,1.83,0,0,1,1.41-.52h5.46ZM41.43,21.74h.84l-.45,4H40.59a17.71,17.71,0,0,0-5.67,1.54V39.38H30.65V22.23H34l.38,2.52C36.81,22.75,39.17,21.74,41.43,21.74Zm10.89,0c-2.9,0-4.91.42-6.06,1.26s-1.71,2.28-1.71,4.31q0,3.47,2.41,4.62a3.24,3.24,0,0,0-1.41,2.5,3.11,3.11,0,0,0,1,2.78,6.3,6.3,0,0,0-2.07,1.61A3.53,3.53,0,0,0,43.81,41c0,2,.62,3.36,1.86,4.12s3.51,1.13,6.82,1.13,5.53-.39,6.78-1.17,1.87-2.22,1.87-4.32A5,5,0,0,0,60,37.28a6,6,0,0,0-3.63-1.54l-6.26-.87A1.26,1.26,0,0,1,49,34a1.57,1.57,0,0,1,.17-1.42,17.25,17.25,0,0,0,3.15.24q4.3,0,6-1.27c1.15-.86,1.72-2.27,1.72-4.26a7.15,7.15,0,0,0-.46-2.73l2.24-.24.25-2.07H56.62A16.42,16.42,0,0,0,52.32,21.74ZM49.24,38.12l4.9.6a7.55,7.55,0,0,1,2.38.51c.35.19.52.64.52,1.34a1.85,1.85,0,0,1-.87,1.86,10.34,10.34,0,0,1-3.71.42,10.77,10.77,0,0,1-3.69-.4c-.58-.27-.86-.91-.86-1.91A3.42,3.42,0,0,1,49.24,38.12Zm6-8.85a5.74,5.74,0,0,1-3,.56,5.83,5.83,0,0,1-3-.56,2.22,2.22,0,0,1-.84-2,2.17,2.17,0,0,1,.84-2,5.85,5.85,0,0,1,3-.55,5.76,5.76,0,0,1,3,.55,2.2,2.2,0,0,1,.82,2A2.26,2.26,0,0,1,55.28,29.27Zm24.9-1.58a5.37,5.37,0,0,0-1.86-4.46c-1.23-1-3.22-1.49-5.95-1.49-3,0-5.08.68-6.37,2s-1.92,3.68-1.92,7,.65,5.59,2,7,3.51,2.06,6.61,2.06a16.94,16.94,0,0,0,7.07-1.15l-.38-2.73a53.16,53.16,0,0,1-6.16.42,5.73,5.73,0,0,1-3.33-.75,4.23,4.23,0,0,1-1.26-3h7Q80.18,32.59,80.18,27.69ZM74.4,29.62H68.52c0-1.77.36-3,.93-3.59a4.11,4.11,0,0,1,3.1-.93,4.63,4.63,0,0,1,2.66.56,2.33,2.33,0,0,1,.73,2C75.94,29,75.43,29.62,74.4,29.62ZM98.8,23A4.8,4.8,0,0,1,100,26.5V39.38H95.75V27.8a3.46,3.46,0,0,0-.38-1.94,1.72,1.72,0,0,0-1.44-.51,6.54,6.54,0,0,0-2.43.49,25.7,25.7,0,0,0-3.2,1.61V39.38H84V22.23H87.6l.28,2.52c2.66-2,5.13-3,7.42-3A4.74,4.74,0,0,1,98.8,23Zm22.08,16.41H116.4L112.1,32h-.49l-4.31,7.35h-4.48l5.43-8.82-5-8.33h4.45L111.57,29h.56L116,22.23h4.44l-5,8.33Z"/></svg>