<svg version="1.2" xmlns="http://www.w3.org/2000/svg" viewBox="0 0 1588 335" width="1588" height="335">
	<title>arrrow-svg</title>
	<style>
		.s0 { fill: #877f7a } 
		.s1 { fill: #4ca950 } 
		.s2 { fill: #4681cf } 
		.s3 { fill: none;stroke: #4681cf;stroke-width: 1.6 } 
	</style>
	<g id="logoText">
		<g id="Layer">
			<path id="Layer" fill-rule="evenodd" class="s0" d="m469.8 272.5c2.9-4.9 9.1-7.8 15.2-7.8 12.3 0 23 9.4 23 24.2 0 14.7-10.3 23.7-23 23.7-6.1 0-12.3-2.4-15.2-7.3v29.1h-10.2v-68.9h10.2zm27.9 16.2c0-7.8-6.2-14.1-13.9-14.1-7.7 0-14 6.3-14 14.1 0 7.8 6.3 14.1 14 14.1 7.7 0 13.9-6.3 13.9-14.1z"/>
			<path id="Layer" class="s0" d="m531.4 311.4h-10.3v-70.9h10.3v32c2.4-5.8 9.8-7.8 14.7-7.8 11.9 0 18.5 7.8 18.5 20.9v25.8c-1.7 0-8.6 0-10.3 0v-25.4c0-7.4-4.5-11.5-10.2-11.5-5.8 0-12.7 3.3-12.7 12.3z"/>
			<path id="Layer" fill-rule="evenodd" class="s0" d="m615.8 304.8c-2.8 5-9.8 7.4-15.5 7.4-12.3 0-23.4-9.4-23.4-24.2 0-14.7 11.1-23.7 23.4-23.7 5.3 0 12.3 2.4 15.5 7.3v-6.5h9.9v46.3h-9.9zm0-16.2c0-7.8-6.3-14.1-14.1-14.1-7.8 0-14.2 6.3-14.2 14.1 0 7.8 6.4 14.2 14.2 14.2 7.8 0 14.1-6.4 14.1-14.2z"/>
			<path id="Layer" class="s0" d="m651.9 311.4h-10.2v-45.9h10.2v10.7c2.5-8.2 7-11.5 12.7-11.5 3.3 0 6.6 0.8 8.2 1.6l-1.6 9.4c-2.5-1.2-4.9-1.6-7-1.6-8.6 0-12.3 8.6-12.3 20.9z"/>
			<path id="Layer" class="s0" d="m724.1 286.8v24.6h-10.3v-25.8c0-7-4.1-11.1-9.4-11.1-5.7 0-11.5 3.3-11.5 12.3v24.6h-10.2v-45.9h10.2v7c2.9-6.6 10.7-7.8 14.4-7.8 7.4 0 11.9 3.3 14.3 9 4.5-7.8 11.1-9 15.6-9 11.5 0 17.7 7.4 17.7 20.5v26.2h-10.3v-25.4c0-7.4-3.7-11.5-9.8-11.5-6.2 0-10.7 4.9-10.7 12.3z"/>
			<path id="Layer" fill-rule="evenodd" class="s0" d="m806.5 304.8c-2.8 5-9.8 7.4-15.6 7.4-12.3 0-23.3-9.4-23.3-24.2 0-14.7 11-23.7 23.3-23.7 5.4 0 12.3 2.4 15.6 7.3v-6.5h9.9v46.3h-9.9zm0-16.2c0-7.8-6.3-14.1-14.1-14.1-7.8 0-14.2 6.3-14.2 14.1 0 7.8 6.4 14.2 14.2 14.2 7.8 0 14.1-6.4 14.1-14.2z"/>
			<path id="Layer" class="s0" d="m854.1 264.7c7.4 0 13.9 2.9 18 7.8l-7.8 6.1c-2.4-2.9-6.1-4.5-10.2-4.5-7.8 0-14.4 5.3-14.4 13.9 0 8.7 7 14.4 14.4 14.4 4.1 0 7.8-1.6 10.2-4.5l7.8 6.1c-4.5 4.9-11 8.2-18.4 8.2-13.1 0-24.6-9.4-24.6-24.2 0.4-14.3 11.9-23.3 25-23.3z"/>
			<path id="Layer" fill-rule="evenodd" class="s0" d="m927.1 292.1h-36.5c0.8 7 6.5 11.5 13.9 11.5 5 0 10.3-2.4 12.3-6.5 2.5 1.2 5.8 2.4 8.2 3.7-4.1 8.1-12.7 11.8-21.3 11.8-13.1 0-23.8-9.4-23.8-24.1 0-14.8 10.7-23.8 23.8-23.8 13.1 0 23 9.4 23 23.8 0.4 1.2 0.4 2.8 0.4 3.6zm-9.9-7.3c-0.8-7.4-6.1-11.5-13.1-11.5-7 0-12.7 4.1-13.5 11.5z"/>
			<path id="Layer" class="s0" d="m971 265.5h10.2v45.9h-10.2v-6.6c-2.5 5.4-9.1 7.8-13.6 7.8-11 0-18-7.3-17.6-20v-26.7h10.2v25.4c0 7.4 4.1 11.5 9.5 11.5 5.7 0 11.9-3.3 11.9-12.3v-25z"/>
			<path id="Layer" class="s0" d="m1010.7 265.5h9.9v8.2h-9.9v37.7h-10.2v-37.7h-8.2v-8.2h8.2v-17.2h10.2z"/>
			<path id="Layer" fill-rule="evenodd" class="s0" d="m1042.7 247.1c0-3.7-3-6.6-6.7-6.6-3.8 0-6.8 2.9-6.8 6.6 0 3.6 3 6.5 6.8 6.5 3.7 0 6.7-2.9 6.7-6.5zm-11 64.3h9.8v-45.9h-9.8z"/>
			<path id="Layer" class="s0" d="m1078.4 264.7c7.4 0 13.9 2.9 18 7.8l-7.7 6.1c-2.1-2.4-6.2-4.1-10.3-4.1-7.8 0-14.3 5.3-14.3 14 0 8.6 6.9 14.3 14.3 14.3 4.1 0 7.8-1.6 10.3-4.5l7.7 6.1c-4.5 5-11 8.2-18.4 8.2-13.1 0-24.6-9.4-24.6-24.1 0.8-14.8 11.9-23.8 25-23.8z"/>
			<path id="Layer" fill-rule="evenodd" class="s0" d="m1143.6 304.8c-2.9 5-9.8 7.4-15.6 7.4-12.3 0-23.4-9.4-23.4-24.2 0-14.7 11.1-23.7 23.4-23.7 5.4 0 12.3 2.4 15.6 7.3v-6.5h9.8v46.3h-9.8zm0-16.2c0-7.8-6.3-14.1-14.1-14.1-7.9 0-14.2 6.3-14.2 14.1 0 7.8 6.3 14.2 14.2 14.2 7.8 0 14.1-6.4 14.1-14.2z"/>
			<path id="Layer" class="s0" d="m1169.4 240.5h10.3v70.9h-10.3z"/>
			<path id="Layer" class="s0" d="m1194 276.6c0.5-7 7.8-12.3 16.4-12.3 8.2 0 16 3.7 16.9 13.5h-9.9c-0.4-3.3-3.7-4.9-6.5-4.9-2.5 0-5.4 0.8-6.6 2.4-0.8 1.3-0.8 2.9-0.4 4.1 0.4 1.7 3.3 2.9 5.7 3.7l7 1.7c9.8 2.4 11.9 8.6 11.9 13.5 0 9-7.8 13.9-18.5 13.9-8.6 0-17.2-5.3-17.6-15.1h9.4c0.4 4.1 3.7 6.5 9.1 6.5 4.5 0 8.2-2 8.2-5.3 0-2.9-2.9-4.5-6.6-5.3l-6.2-1.7c-9.4-2.4-13.1-7.4-12.3-14.7z"/>
		</g>
		<g id="Layer">
			<path id="Layer" fill-rule="evenodd" class="s0" d="m564.2 204.4h-16.8v-20.1c-8.7 14.8-27.1 22.6-43.9 22.6-33.2 0-59.9-24.2-59.9-61.1 0-36.9 26.7-60.6 59.9-60.6 16.8 0 35.2 6.9 43.9 21.7v-19.3h16.8zm-60.7-14.3c23.8 0 43.9-15.6 43.9-44.7 0-28.7-23-43.9-43.9-43.9-24.2 0-43.1 16.8-43.1 43.9 0 26.2 18.5 44.7 43.1 44.7z"/>
			<path id="Layer" class="s0" d="m660.1 106.1c-5.3-2.9-12.7-4.1-16.8-4.1-23.8 0-33.6 27.8-33.6 59v43.4h-16.8v-116.8h16.8v26.7c5.7-20.1 16.4-29.1 33.6-29.1 8.2 0 16.8 2.4 18.9 4.5z"/>
			<path id="Layer" class="s0" d="m743.8 106.1c-5.4-2.9-12.7-4.1-16.8-4.1-23.8 0-33.7 27.8-33.7 59v43.4h-16.8v-116.8h16.8v26.7c5.8-20.1 16.4-29.1 33.7-29.1 8.2 0 16.8 2.4 18.8 4.5z"/>
			<path id="Layer" fill-rule="evenodd" class="s0" d="m746.7 145.8c0-36.9 27.8-60.6 61.1-60.6 33.2 0 61.1 23.3 61.1 60.6 0 37.3-27.9 61.1-61.1 61.1-33.3 0-61.1-24.2-61.1-61.1zm105.3 0c0-27-20.1-43.8-44.7-43.8-24.2 0-44.7 16.8-44.7 43.8 0 27.1 20.1 44.7 44.7 44.7 24.6 0 44.7-18 44.7-44.7z"/>
			<path id="Layer" class="s0" d="m1002.1 204.4l-36.5-93.8-34.8 93.8h-14l-45.1-116.8h17.7l33.6 90.2 33.6-90.2h18.1l33.6 90.2 33.6-90.2h17.6l-43.8 116.8z"/>
			<path id="Layer" class="s0" d="m1092.3 204.4h-16.8v-179.9h16.8v82.4c7.4-15.2 25.5-21.7 39-21.7 28.7 0 45.1 19.6 45.1 51.2v68h-16.8v-68c0-21.3-10.3-34.8-28.3-34.8-18.5 0-39 10.6-39 38.9z"/>
			<path id="Layer" fill-rule="evenodd" class="s0" d="m1196.1 145.8c0-36.9 25.8-60.6 59-60.6 33.3 0 57.5 23.3 57.5 60.6 0 2.5 0 5.3-0.5 7.8h-99.2c2.9 23 20.1 36.9 41.8 36.9 15.6 0 29.2-7.4 36.5-20.1 5 1.2 11.5 2.5 16.8 3.7-9.4 20.9-29.9 33.2-53.3 33.2-32.8-0.4-58.6-24.6-58.6-61.5zm99.2-7.8c-3.2-22.1-18.8-36-40.2-36-21.7 0-38.9 13.9-41.8 36z"/>
			<path id="Layer" fill-rule="evenodd" class="s0" d="m1448.3 204.4h-16.8v-20.1c-8.6 14.8-27.1 22.6-43.9 22.6-33.2 0-59.9-24.2-59.9-61.1 0-36.9 26.7-60.6 59.9-60.6 16.8 0 35.3 6.9 43.9 21.7v-19.3h16.8zm-60.7-14.3c23.8 0 43.9-15.6 43.9-44.7 0-28.7-23-43.9-43.9-43.9-24.2 0-43.1 16.8-43.1 43.9 0 26.2 18.9 44.7 43.1 44.7z"/>
			<path id="Layer" fill-rule="evenodd" class="s0" d="m1587.3 204.4h-16.8v-20.1c-8.6 14.8-27.1 22.6-43.9 22.6-33.2 0-59.9-24.2-59.9-61.1 0-36.9 26.7-60.6 59.9-60.6 16.8 0 35.3 6.9 43.9 21.7v-82.4h16.8zm-61.1-14.4c23.8 0 43.9-15.5 43.9-44.6 0-28.7-23-43.9-43.9-43.9-24.2 0-43.1 16.8-43.1 43.9 0.5 26.2 18.9 44.6 43.1 44.6z"/>
		</g>
	</g>
	<path id="logoFill2" class="s1" d="m160.6 202.8c-22.9 0-41.4-18.5-41.4-41.4 0-22.9 18.5-41.4 41.4-41.4 23 0 41.5 18.5 41.5 41.4 0 22.9-18.5 41.4-41.5 41.4z"/>
	<path id="logoFill1" fill-rule="evenodd" class="s2" d="m353.8 278.6c-2.5-49.6-4.5-137.3-4.5-137.3l-1.2 1.6c-6.6 27.1-17.3 70.5-41.9 108.3-16 25-37.3 46.3-59.8 58.6l-2.5 2.4h133.7v-13.1c-13.6-5.3-20.9-10.6-23.8-20.5zm-88.2-265.2c0.4 37.3-2.4 82-11 118.9-7.4 31.6-16.9 50.4-25.9 63.5-12.7 18.5-25.4 27.9-38.5 32.4q-13.6 6.2-29.6 6.2c-40.5 0-73.4-32.8-73.4-73.4 0-40.6 32.9-73.4 73.4-73.4 38.2 0 69.4 29.1 73 66 0.5 0.4 0.9 0.8 0.9 0.8 10.6-30.7 16-74.2 16.8-122.1-19.7-15.6-58.3-28.3-95.6-28.3-41 0-80.3 18.9-108.6 48-28.3 29.1-43.1 67.6-43.1 109.8 0 41.8 16.8 80.7 45.9 110.7 30 30.7 65.2 47.9 107.5 47.9 118.1 3.7 186.6-117.6 191.1-296.3v-10.7z"/>
	<path id="logoPath2" fill-rule="evenodd" class="s3" d="m162.7 319.6q-2.5 0-4.9 0c-40.2 0-76.3-16-107.1-47.5-29.5-30.8-45.9-69.7-45.9-110.3 0-42.6 14.8-80.3 42.7-109 29.5-30.4 68.9-48 108.2-48 34.9 0 73.8 11.5 94.3 28.3-0.8 48-6.5 88.9-15.9 118.5-5-37.3-36.1-64.8-73.9-64.8-41 0-74.6 33.2-74.6 74.6 0 41 33.2 74.6 74.6 74.6 10.3 0 20.5-2.1 30-6.2 14.7-5.7 27.5-15.9 38.9-32.7 11.1-16 19.3-36.5 25.9-63.6 10.2-43 11.4-92.2 11-118h80.8v9.4c-4.1 181.2-74.6 294.7-184.1 294.7z"/>
	<path id="logoPath1" fill-rule="evenodd" class="s3" d="m246.4 311l0.8-0.8c21.7-11.9 43-32.8 60.3-58.6 24.6-37.7 35.6-81.2 41.4-106.2 0.4 18 2.4 90.2 4.1 133.2 2.8 10.7 11.5 16 23.8 20.9v11.5z"/>
</svg>