<svg height="2498" width="2500" xmlns="http://www.w3.org/2000/svg" viewBox="0.1 0 1576 1576"><path d="M887.7 255.1c12.4 12.4 20.7 29 20.7 47.7 0 37.3-29 66.3-66.3 66.3H690.7V151.4H840c35.2 0 64.3 29 64.3 64.3-2.1 14.5-8.3 29-16.6 39.4zm-147.2 66.3h93.3c12.4 0 20.7-8.3 20.7-20.7 0-12.5-8.3-20.8-20.7-20.8h-93.3zm0-87h91.2c10.4 0 18.7-8.3 18.7-18.7s-8.3-18.7-18.7-18.7h-91.2zm182.4 394h-56l-16.5-37.3H728l-16.6 37.3h-56l107.9-217.7H813zM788.1 466.6l-37.3 78.8h74.7zm74.6 209.5h62.2L815 817.1v76.7h-51.8v-76.7l-109.9-141h62.2l74.6 99.5zm288.3 0v47.7h-145.2v37.3h141v47.7h-141v41.5H1151V898H954V676.1zm159.7 134.8h-39.4v83h-51.9V676.1h132.7c37.4 0 66.4 31.1 66.4 68.5 0 31.1-20.7 55.9-47.7 64.2l64.3 85.1h-62.2zm37.3-89.2h-74.7v41.5h74.7c12.4 0 20.7-10.4 20.7-20.8 0-10.3-10.3-20.7-20.7-20.7zM676.1 893.8h-56l-16.6-37.3H481.2l-16.6 37.3h-56l109.9-217.7h49.8zM541.3 732L504 810.8h76.7zm-182.5 47.7c12.5 12.5 20.8 29 20.8 47.7 0 37.3-29.1 66.4-66.4 66.4H159.7V676H309c35.3 0 64.3 29.1 64.3 64.3 0 14.5-6.2 29-14.5 39.4zm-147.2 66.4h93.3c12.4 0 20.7-8.3 20.7-20.8 0-12.4-8.3-20.7-20.7-20.7h-93.3zm0-87.1h91.2c10.4 0 18.7-8.3 18.7-18.7 0-10.3-8.3-18.6-18.7-18.6h-91.2zm676 180.4v47.7H742.4v37.3h141.1v47.7H742.4v41.5h145.2v47.7h-197V939.4zm-199.1 489.4V1211h145.2c37.3 0 66.3 31.1 66.3 68.5 0 29-16.5 51.8-41.4 62.2l66.3 87.1h-62.2l-62.2-83h-60.1v83zm161.7-151.4c0-12.4-8.3-20.7-20.7-20.7h-89.2v41.4h89.2c12.4 0 20.7-8.3 20.7-20.7z" fill="#10384f" fill-rule="evenodd"/><path d="M1576.1 785.9c0 16.6-2 33.2-2 49.8 0-14.5-2.1-31.1-4.2-47.7-16.6-136.9-68.4-263.4-147.2-369.1C1279.6 224 1049.4 97.5 788.1 97.5c-364.9 0-663.5 284.1-688.4 640.7-2.1 16.6-2.1 33.2-2.1 49.8s0 33.2 2.1 49.8c24.9 356.6 323.5 640.7 688.4 640.7-261.2 0-491.4-126.5-634.5-321.4C74.8 1051.4 23 924.9 6.4 788c-2.1-16.6-4.2-33.2-4.2-49.8C27.1 327.6 369.3 0 788.1 0c418.9 0 761.1 327.6 786 738.2 2 16.6 2 33.2 2 47.7z" fill="#89d329"/><path d="M.1 790.1c0-16.6 2.1-33.2 2.1-49.8 0 14.5 2.1 31.1 4.2 47.7 16.6 136.9 68.4 263.4 147.2 369.1 143.1 194.9 373.3 321.4 634.5 321.4 365 0 663.6-282 688.5-640.7 2.1-16.6 2.1-33.2 2.1-49.8s0-33.2-2.1-49.8c-24.9-356.6-323.5-640.7-688.5-640.7 261.3 0 491.5 126.5 634.6 321.4 78.8 105.7 130.6 232.2 147.2 369.1 2.1 16.6 4.2 33.2 4.2 49.8-24.9 410.6-367.1 738.2-786 738.2-418.8 0-761-327.6-785.9-738.2C.1 821.2.1 804.6.1 790.1z" fill="#00bcff"/></svg>