<?xml version="1.0" encoding="UTF-8"?><svg xmlns="http://www.w3.org/2000/svg" xmlns:xlink="http://www.w3.org/1999/xlink" viewBox="0 0 684.47 240.5"><defs><style>.f{fill:url(#e);}.g{mask:url(#d);}.h{fill:#687172;}.i{fill:#e9f2f4;}.j{fill:#98989a;}.k{fill:#85b7c4;}.l{fill:#d6e6ea;}.m{fill:#aeced7;}.n{fill:#1a8a9e;}</style><linearGradient id="e" x1="-14.48" y1="175.56" x2="-14.48" y2="-10.38" gradientTransform="translate(137.13 28.71) scale(1.26 1.03)" gradientUnits="userSpaceOnUse"><stop offset=".37" stop-color="#000"/><stop offset=".41" stop-color="#151515"/><stop offset=".58" stop-color="#676767"/><stop offset=".73" stop-color="#a8a8a8"/><stop offset=".85" stop-color="#d7d7d7"/><stop offset=".95" stop-color="#f4f4f4"/><stop offset="1" stop-color="#fff"/></linearGradient><mask id="d" x="-369.5" y="-50.6" width="662.39" height="444.6" maskUnits="userSpaceOnUse"><rect class="f" x="-33.37" y="-21.64" width="304.41" height="242.34" transform="translate(-18.08 26.85) rotate(-11.99)"/></mask></defs><g id="a"/><g id="b"><g id="c"><g><g><path class="h" d="M115.31,67.62c9.55,0,18.96,2.12,30.18,5.61l8.19,2.58-2.58,13.65-8.64-2.58c-10.47-3.19-18.81-5.31-26.09-5.31-21.84,0-35.49,13.35-35.49,43.38s13.95,43.22,35.64,43.22c7.13,0,15.62-1.97,25.93-5.16l8.64-2.73,2.58,13.8-8.19,2.43c-11.22,3.49-20.63,5.76-30.18,5.76-29.57,0-50.96-17.59-50.96-57.33s21.99-57.33,50.96-57.33Z"/><path class="h" d="M212.52,110.69c-10.31,0-19.26,.46-28.66,3.03v67.34h-14.41V113.11c0-6.52,3.34-10.01,9.4-11.68,11.37-3.19,19.11-3.79,33.67-3.79v13.04Z"/><path class="h" d="M225.86,181.06V98.25h14.41v82.81h-14.41Z"/><path class="h" d="M276.51,181.06h-14.41V112.96c0-6.37,3.34-10.01,9.4-11.53,12.89-3.49,20.63-3.79,26.39-3.79,22.9,0,31.85,12.89,31.85,29.73v53.69h-14.41v-52.32c0-10.46-4.25-18.2-18.65-18.2-4.55,0-9.25,.3-20.17,3.03v67.49Z"/><path class="h" d="M385.25,97.19c22.29,0,37.31,13.04,37.31,40.49,0,4.85-2.28,7.58-7.13,7.58h-53.69c.91,16.53,11.98,23.96,26.54,23.96,6.07,0,12.59-1.06,22.6-4.1l8.19-2.58,2.43,11.98-8.04,2.58c-10.92,3.49-18.05,4.85-25.93,4.85-23.96,0-40.19-13.95-40.19-42.16,0-29.72,17.59-42.62,37.92-42.62Zm-.3,11.38c-13.8,0-22.29,9.71-23.2,25.33h46.41c0-13.8-6.83-25.33-23.2-25.33Z"/><path class="h" d="M487.92,179.24c-8.19,1.82-13.8,2.73-18.35,2.73-16.99,0-25.18-9.4-25.18-27.6v-42.62h-12.74v-12.13h12.74v-19.87l14.26-2.73v22.6h27.15v12.13h-27.15v42.47c0,10.16,3.19,15.32,12.44,15.32,3.34,0,7.58-.76,14.86-2.43l1.97,12.13Z"/><path class="h" d="M510.82,83.54c-5.61,0-9.1-3.64-9.1-9.4s3.49-9.4,9.1-9.4,9.1,3.64,9.1,9.4-3.49,9.4-9.1,9.4Zm-7.13,97.52V98.25h14.41v82.81h-14.41Z"/><path class="h" d="M575.42,169.08c4.85,0,11.37-1.52,19.87-3.94l6.82-1.82,2.28,12.59-6.67,1.97c-9.4,2.58-16.99,4.1-23.51,4.1-22.29,0-37.61-13.04-37.61-42.31,0-27.6,15.32-42.31,37.61-42.31,6.52,0,14.1,1.67,23.51,4.25l6.67,1.97-2.28,12.59-6.82-1.97c-8.49-2.28-15.17-3.79-20.02-3.79-15.62,0-23.81,9.55-23.81,29.27s8.19,29.42,23.96,29.42Z"/><path class="h" d="M661.41,135.26c14.41,2.43,22.6,9.86,22.6,22.14,0,16.84-13.95,24.72-29.73,24.72-10.92,0-19.26-1.82-29.73-4.85l-6.67-2.12,2.43-12.29,6.98,2.12c8.95,2.58,17.74,4.85,27,4.85,8.34,0,15.62-3.34,15.62-11.68,0-5.76-3.64-9.55-13.04-10.92l-15.92-2.88c-14.41-2.43-22.6-10.01-22.6-22.29,0-16.83,13.95-24.72,29.72-24.72,10.92,0,19.11,1.82,29.57,5l6.83,1.97-2.43,12.44-7.13-2.12c-8.8-2.58-17.74-4.85-27-4.85-8.34,0-15.62,3.34-15.62,11.68,0,5.76,3.64,9.4,13.04,11.07l16.08,2.73Z"/></g><g class="g"><g><rect class="j" x="43.5" y="42" width="164" height="2"/><rect class="j" x="41" y="43.25" width="2" height="167.75"/><rect class="j" x="151.75" y="-39.22" width="2" height="174.43" transform="translate(61.4 179.5) rotate(-72.66)"/><rect class="j" x="19.39" y="46.25" width="159.73" height="2" transform="translate(-9.56 31.64) rotate(-17.29)"/><rect class="j" x="-6.11" y="58.37" width="167.98" height="2" transform="translate(-20.02 56.75) rotate(-35.78)"/><rect class="j" x="-24.71" y="76.37" width="167.17" height="2" transform="translate(-38.33 79.52) rotate(-54)"/><rect class="j" x="-38.04" y="99.25" width="168.33" height="2" transform="translate(-63.37 113.98) rotate(-72.44)"/><rect class="j" x="46.5" y="71.28" width="2" height="164.95" transform="translate(-43.53 21.05) rotate(-17.28)"/><rect class="j" x="55.25" y="93.1" width="2" height="155.8" transform="translate(-90.95 67.38) rotate(-36.65)"/><rect class="j" x="70.37" y="113.59" width="2" height="152.32" transform="translate(-124.1 136.01) rotate(-54.01)"/><rect class="j" x="95" y="126.03" width="2" height="155.44" transform="translate(-127.34 232.89) rotate(-72.21)"/><rect class="j" x="91.75" y="158.49" width="2" height="101.51" transform="translate(-117.85 298.9) rotate(-89.15)"/></g></g><circle class="n" cx="232.25" cy="73.75" r="9.75"/><circle class="n" cx="210.75" cy="43.25" r="9.75"/><circle class="n" cx="181.5" cy="23.25" r="9.75"/><circle class="n" cx="146" cy="10.25" r="9.75"/><circle class="n" cx="108" cy="9.75" r="9.75"/><circle class="n" cx="72.5" cy="21.75" r="9.75"/><circle class="n" cx="43" cy="43.25" r="9.75"/><circle class="n" cx="20.75" cy="73.5" r="9.75"/><circle class="n" cx="9.75" cy="108.5" r="9.75"/><circle class="k" cx="9.75" cy="145" r="9.75"/><circle class="m" cx="20.75" cy="180.5" r="9.75"/><circle class="l" cx="43.75" cy="209.5" r="9.75"/><circle class="i" cx="71" cy="230.75" r="9.75"/><g><path class="n" d="M435.42,202.19c0,2.52-.82,4.44-2.47,5.79s-3.99,2.01-7.04,2.01h-2.51v9.02h-3.94v-24.1h6.94c3.01,0,5.27,.62,6.77,1.85s2.25,3.04,2.25,5.44Zm-12.02,4.48h2.09c2.02,0,3.5-.35,4.45-1.05,.94-.7,1.42-1.8,1.42-3.3,0-1.38-.42-2.42-1.27-3.1-.85-.68-2.17-1.02-3.96-1.02h-2.74v8.47Z"/><path class="n" d="M455.18,219h-3.89v-11.21c0-1.41-.28-2.46-.85-3.15-.57-.69-1.46-1.04-2.69-1.04-1.63,0-2.82,.49-3.58,1.46-.76,.97-1.15,2.6-1.15,4.89v9.05h-3.87v-25.65h3.87v6.51c0,1.04-.07,2.16-.2,3.35h.25c.53-.88,1.26-1.56,2.2-2.04s2.04-.73,3.29-.73c4.42,0,6.63,2.23,6.63,6.68v11.88Z"/><path class="n" d="M471.3,219l-.77-2.54h-.13c-.88,1.11-1.76,1.86-2.65,2.27-.89,.4-2.03,.6-3.43,.6-1.79,0-3.19-.48-4.19-1.45-1.01-.97-1.51-2.33-1.51-4.1,0-1.88,.7-3.3,2.09-4.25,1.39-.96,3.52-1.48,6.38-1.57l3.15-.1v-.97c0-1.16-.27-2.04-.82-2.61s-1.39-.87-2.53-.87c-.93,0-1.83,.14-2.69,.41s-1.68,.6-2.47,.97l-1.25-2.77c.99-.52,2.07-.91,3.25-1.18,1.18-.27,2.28-.4,3.33-.4,2.32,0,4.07,.5,5.25,1.52,1.18,1.01,1.77,2.6,1.77,4.76v12.28h-2.77Zm-5.77-2.64c1.41,0,2.54-.39,3.39-1.18,.85-.78,1.28-1.89,1.28-3.3v-1.58l-2.34,.1c-1.82,.07-3.15,.37-3.98,.91-.83,.54-1.24,1.38-1.24,2.5,0,.81,.24,1.44,.73,1.89,.48,.45,1.21,.67,2.18,.67Z"/><path class="n" d="M488.05,200.44c.78,0,1.42,.06,1.93,.16l-.38,3.61c-.55-.13-1.12-.2-1.71-.2-1.55,0-2.81,.5-3.77,1.52-.96,1.01-1.44,2.32-1.44,3.94v9.53h-3.87v-18.23h3.03l.51,3.21h.2c.6-1.09,1.39-1.95,2.37-2.59s2.02-.96,3.14-.96Z"/><path class="n" d="M508.05,219h-3.89v-11.24c0-1.39-.26-2.44-.79-3.12s-1.35-1.03-2.47-1.03c-1.49,0-2.59,.49-3.29,1.46-.7,.97-1.05,2.59-1.05,4.85v9.08h-3.87v-18.23h3.03l.54,2.39h.2c.5-.87,1.24-1.54,2.2-2.01,.96-.47,2.02-.71,3.17-.71,2.8,0,4.66,.96,5.57,2.87h.26c.54-.9,1.3-1.6,2.27-2.11,.98-.5,2.1-.76,3.36-.76,2.18,0,3.76,.55,4.76,1.65,.99,1.1,1.49,2.78,1.49,5.03v11.88h-3.87v-11.24c0-1.39-.27-2.44-.8-3.12-.53-.69-1.36-1.03-2.48-1.03-1.51,0-2.61,.47-3.3,1.41-.7,.94-1.05,2.38-1.05,4.33v9.66Z"/><path class="n" d="M535.69,219l-.77-2.54h-.13c-.88,1.11-1.76,1.86-2.65,2.27s-2.03,.6-3.43,.6c-1.79,0-3.19-.48-4.19-1.45-1.01-.97-1.51-2.33-1.51-4.1,0-1.88,.7-3.3,2.09-4.25,1.39-.96,3.52-1.48,6.38-1.57l3.15-.1v-.97c0-1.16-.27-2.04-.82-2.61s-1.39-.87-2.53-.87c-.93,0-1.83,.14-2.69,.41s-1.68,.6-2.47,.97l-1.25-2.77c.99-.52,2.07-.91,3.25-1.18,1.18-.27,2.28-.4,3.33-.4,2.32,0,4.07,.5,5.25,1.52,1.18,1.01,1.77,2.6,1.77,4.76v12.28h-2.77Zm-5.77-2.64c1.41,0,2.54-.39,3.39-1.18,.85-.78,1.28-1.89,1.28-3.3v-1.58l-2.34,.1c-1.82,.07-3.15,.37-3.98,.91-.83,.54-1.24,1.38-1.24,2.5,0,.81,.24,1.44,.73,1.89,.48,.45,1.21,.67,2.18,.67Z"/><path class="n" d="M550.54,219.33c-2.76,0-4.85-.81-6.29-2.41-1.43-1.61-2.15-3.92-2.15-6.93s.75-5.42,2.25-7.07,3.67-2.47,6.5-2.47c1.92,0,3.65,.36,5.19,1.07l-1.17,3.12c-1.64-.64-2.99-.96-4.05-.96-3.15,0-4.73,2.09-4.73,6.28,0,2.04,.39,3.58,1.18,4.61,.78,1.03,1.94,1.54,3.45,1.54,1.72,0,3.36-.43,4.9-1.29v3.38c-.69,.41-1.43,.7-2.22,.87-.79,.18-1.74,.26-2.86,.26Z"/><path class="n" d="M567.18,219.33c-2.83,0-5.05-.83-6.65-2.48-1.6-1.65-2.4-3.93-2.4-6.83s.74-5.32,2.23-7.02c1.48-1.7,3.52-2.55,6.11-2.55,2.41,0,4.31,.73,5.7,2.19,1.39,1.46,2.09,3.47,2.09,6.03v2.09h-12.15c.05,1.77,.53,3.13,1.43,4.08,.9,.95,2.17,1.43,3.81,1.43,1.08,0,2.08-.1,3.01-.3,.93-.2,1.93-.54,2.99-1.01v3.15c-.95,.45-1.9,.77-2.87,.96-.97,.19-2.07,.28-3.31,.28Zm-.71-15.95c-1.23,0-2.22,.39-2.96,1.17s-1.18,1.92-1.33,3.41h8.27c-.02-1.51-.39-2.65-1.09-3.42-.7-.77-1.67-1.16-2.9-1.16Z"/><path class="n" d="M590.85,219l-.54-2.39h-.2c-.54,.85-1.31,1.51-2.3,1.99-1,.48-2.13,.73-3.4,.73-2.21,0-3.86-.55-4.94-1.65s-1.63-2.76-1.63-4.99v-11.92h3.91v11.24c0,1.39,.29,2.44,.86,3.14,.57,.7,1.47,1.05,2.69,1.05,1.63,0,2.82-.49,3.58-1.46,.76-.97,1.15-2.6,1.15-4.89v-9.08h3.89v18.23h-3.05Z"/><path class="n" d="M605.54,216.2c.94,0,1.89-.15,2.83-.45v2.92c-.43,.19-.98,.34-1.66,.47s-1.38,.19-2.1,.19c-3.67,0-5.51-1.93-5.51-5.8v-9.82h-2.49v-1.71l2.67-1.42,1.32-3.86h2.39v4.05h5.19v2.93h-5.19v9.76c0,.93,.23,1.62,.7,2.07,.47,.45,1.08,.67,1.84,.67Z"/><path class="n" d="M611.11,195.94c0-.69,.19-1.23,.57-1.6s.92-.56,1.62-.56,1.21,.19,1.59,.56,.57,.91,.57,1.6-.19,1.18-.57,1.56-.91,.57-1.59,.57-1.24-.19-1.62-.57-.57-.9-.57-1.56Zm4.1,23.06h-3.87v-18.23h3.87v18.23Z"/><path class="n" d="M627.43,219.33c-2.76,0-4.85-.81-6.29-2.41-1.43-1.61-2.15-3.92-2.15-6.93s.75-5.42,2.25-7.07,3.67-2.47,6.5-2.47c1.92,0,3.65,.36,5.19,1.07l-1.17,3.12c-1.64-.64-2.99-.96-4.05-.96-3.15,0-4.73,2.09-4.73,6.28,0,2.04,.39,3.58,1.18,4.61,.78,1.03,1.94,1.54,3.45,1.54,1.72,0,3.36-.43,4.9-1.29v3.38c-.69,.41-1.43,.7-2.22,.87-.79,.18-1.74,.26-2.86,.26Z"/><path class="n" d="M647.52,219l-.77-2.54h-.13c-.88,1.11-1.76,1.86-2.65,2.27-.89,.4-2.03,.6-3.43,.6-1.79,0-3.19-.48-4.19-1.45-1.01-.97-1.51-2.33-1.51-4.1,0-1.88,.7-3.3,2.09-4.25,1.39-.96,3.52-1.48,6.38-1.57l3.15-.1v-.97c0-1.16-.27-2.04-.82-2.61s-1.39-.87-2.53-.87c-.93,0-1.83,.14-2.69,.41s-1.68,.6-2.47,.97l-1.25-2.77c.99-.52,2.07-.91,3.25-1.18,1.18-.27,2.28-.4,3.33-.4,2.32,0,4.07,.5,5.25,1.52,1.18,1.01,1.77,2.6,1.77,4.76v12.28h-2.77Zm-5.77-2.64c1.41,0,2.54-.39,3.39-1.18,.85-.78,1.28-1.89,1.28-3.3v-1.58l-2.34,.1c-1.82,.07-3.15,.37-3.98,.91-.83,.54-1.24,1.38-1.24,2.5,0,.81,.24,1.44,.73,1.89,.48,.45,1.21,.67,2.18,.67Z"/><path class="n" d="M658.89,219h-3.87v-25.65h3.87v25.65Z"/><path class="n" d="M676,213.81c0,1.78-.65,3.15-1.94,4.1-1.3,.95-3.15,1.43-5.57,1.43s-4.38-.37-5.85-1.1v-3.35c2.14,.99,4.14,1.48,5.98,1.48,2.38,0,3.58-.72,3.58-2.16,0-.46-.13-.85-.4-1.15s-.7-.63-1.3-.96c-.6-.33-1.45-.7-2.52-1.12-2.1-.81-3.52-1.63-4.26-2.44-.74-.81-1.11-1.87-1.11-3.16,0-1.56,.63-2.77,1.89-3.63,1.26-.86,2.97-1.29,5.13-1.29s4.17,.43,6.08,1.3l-1.25,2.92c-1.97-.81-3.62-1.22-4.96-1.22-2.04,0-3.07,.58-3.07,1.75,0,.57,.27,1.05,.8,1.45,.53,.4,1.69,.94,3.49,1.63,1.51,.58,2.6,1.11,3.28,1.6,.68,.48,1.19,1.04,1.52,1.67s.49,1.39,.49,2.27Z"/></g></g></g></g></svg>