<svg xmlns="http://www.w3.org/2000/svg" width="354.23" height="127.17" viewBox="0 0 354.23 127.17">
  <g id="Group_125" data-name="Group 125" transform="translate(-432.245 -365.946)">
    <g id="Group_1" data-name="Group 1" transform="translate(432.245 365.946)">
      <path id="Path_1" data-name="Path 1" d="M943.67,365.946h13.423L951.7,394.4h.284c1.891-2.742,3.876-5.01,5.672-7.279l17.677-21.175h17.015l-25.806,27.508,14.747,36.2H966.546l-10.682-27.7-6.806,6.428-4.065,21.269H931.57Z" transform="translate(-893.504 -365.946)" fill="#fff"/>
      <path id="Path_2" data-name="Path 2" d="M2195.323,628.963l5.862-31.195c1.134-5.861,1.89-10.965,2.457-15.03h12.1l-.946,7.657h.189c4.348-6.05,10.115-8.7,16.259-8.7,7.563,0,11.816,4.632,11.816,12.573a57.851,57.851,0,0,1-.756,7.846l-5.105,26.846h-13.611l4.821-25.617a31.371,31.371,0,0,0,.472-5.2c0-3.214-1.135-5.483-4.537-5.483-4.443,0-9.642,5.577-11.532,15.786l-3.876,20.513Z" transform="translate(-2060.913 -565.25)" fill="#fff"/>
      <path id="Path_3" data-name="Path 3" d="M2931.39,626.318c-5.388,2.741-12.1,3.592-17.2,3.592-13.234,0-20.041-7.468-20.041-19.473,0-14.085,10.209-28.736,26.94-28.736,9.359,0,16.071,5.2,16.071,13.8,0,11.816-11.439,16.07-29.966,15.6a9.116,9.116,0,0,0,1.418,4.727c1.8,2.363,4.914,3.592,8.885,3.592a29.067,29.067,0,0,0,12.951-2.93Zm-12.006-34.693c-6.333,0-9.925,5.2-10.872,9.548,10.588.094,15.881-1.418,15.881-5.577,0-2.363-1.89-3.971-5.01-3.971" transform="translate(-2706.46 -565.252)" fill="#fff"/>
      <path id="Path_4" data-name="Path 4" d="M3553.876,425.462l-2.458,12.951h9.831l-1.986,10.3h-9.83l-3.12,15.692a34.438,34.438,0,0,0-.756,5.861c0,2.269.946,3.876,3.876,3.876a25.336,25.336,0,0,0,3.781-.189l-1.607,10.682a26.74,26.74,0,0,1-8.035,1.04c-8.129,0-12-4.16-12-9.926a44.717,44.717,0,0,1,.946-8.6l3.592-18.433h-5.861l1.892-10.3h5.955l1.89-9.737Z" transform="translate(-3294.065 -420.925)" fill="#fff"/>
      <path id="Path_5" data-name="Path 5" d="M3941.178,1333.542a8.388,8.388,0,1,1-8.391-8.388,8.386,8.386,0,0,1,8.391,8.388" transform="translate(-3658.175 -1252.028)" fill="#eae55e"/>
      <path id="Path_6" data-name="Path 6" d="M532.36,657.092v-.162c.768-.6,1.528-1.24,2.269-1.941,6.145-5.766,11.627-14.179,17.772-26.468l16.543-33.179H554.574l-8.413,20.323c-1.985,5.01-3.025,8.035-4.065,10.776h-.189c-.378-2.93-.851-6.239-1.513-10.965l-2.836-20.135H523.19l5.188,23.695c1.168,5.336,3.177,10.751,3.831,16.253,0,.005,0,.012,0,.017.206,3.325-3.653,14.7-23.427,25.921l0,0a463.694,463.694,0,0,0-76.536,22.243s91.044-24.545,244.8-16.091c8.394.461,15.591-7.373,16.093-15.765-35.484-.567-91.451-3.671-160.783,5.476" transform="translate(-432.245 -577.853)" fill="#fff"/>
      <path id="Path_7" data-name="Path 7" d="M3983.2,634.462c.092-2.656.366-5.679.642-8.885h-.276c-4.12,7.419-9.8,9.892-15.02,9.892-8.061,0-13.557-6.229-13.557-15.571,0-15.113,9.984-31.234,32.058-31.234a53.357,53.357,0,0,1,14.839,2.2l-4.763,23.448a108.4,108.4,0,0,0-1.74,20.151Zm3.847-35.447a20.4,20.4,0,0,0-3.571-.366c-8.518,0-14.747,10.442-14.747,18.776,0,4.4,1.739,7.419,5.405,7.419,3.937,0,8.793-4.488,10.807-15.48Z" transform="translate(-3686.433 -571.686)" fill="#eae55e"/>
      <path id="Path_8" data-name="Path 8" d="M4619.8,634.462l5.037-26.654c1.283-6.778,1.834-14.289,2.291-18.136h11.45c-.275,3.022-.551,6.045-.826,9.159h.275c3.112-5.954,8.151-10.167,14.289-10.167a22.363,22.363,0,0,1,2.474.092l-2.566,12.823a15.509,15.509,0,0,0-2.106-.092c-8.427,0-12.365,7.511-14.013,16.3l-3.114,16.67Z" transform="translate(-4300.556 -571.686)" fill="#eae55e"/>
    </g>
    <g id="Group_3" data-name="Group 3" transform="translate(547.679 466.843)">
      <g id="Group_2" data-name="Group 2" transform="translate(0 0)">
        <path id="Path_9" data-name="Path 9" d="M1962.656,1722.2l1.347-10.405c.244-1.837.661-4.66,1.019-6.521h-.089c-.869,1.945-1.916,4.237-2.941,6.209l-5.585,10.6h-1.769l-1.389-10.38c-.287-2.213-.478-4.45-.606-6.426h-.06c-.4,1.781-.985,4.69-1.435,6.526l-2.557,10.4h-2.176l4.867-19.268h2.951l1.489,11.049c.187,1.638.4,3.4.453,4.831h.085c.572-1.432,1.377-3.16,2.189-4.764l5.82-11.117h3.025l-2.386,19.268Z" transform="translate(-1946.415 -1701.9)" fill="#fff"/>
        <path id="Path_10" data-name="Path 10" d="M2250.462,1783.549a9.318,9.318,0,0,1-4.459,1.093c-3.583,0-5.131-2.5-5.131-5.563,0-4.163,3.016-8.877,7.358-8.877,2.566,0,3.959,1.569,3.962,3.547,0,3.632-3.991,4.587-8.979,4.49a5.854,5.854,0,0,0,.273,2.631,3.041,3.041,0,0,0,3,1.859,7.346,7.346,0,0,0,3.633-.947Zm-2.557-11.5c-2.2,0-3.867,2.2-4.43,4.368,3.635.043,6.48-.453,6.48-2.608C2249.956,1772.67,2249.109,1772.046,2247.905,1772.046Z" transform="translate(-2218.424 -1764.043)" fill="#fff"/>
        <path id="Path_11" data-name="Path 11" d="M2422.653,1689.429l-2.962,15.915a38.847,38.847,0,0,0-.568,4.382H2417l.359-2.734h-.056a5.766,5.766,0,0,1-4.866,3.049c-2.6,0-4.029-2.192-4.029-5.032,0-4.916,3.563-9.423,8.345-9.423a5.929,5.929,0,0,1,2.382.474l1.21-6.632Zm-3.883,8.637a3.941,3.941,0,0,0-2.207-.588c-3.238,0-5.753,3.533-5.753,7.207,0,1.673.556,3.411,2.545,3.411,1.775,0,3.933-2.083,4.513-5.2Z" transform="translate(-2373.192 -1689.429)" fill="#fff"/>
        <path id="Path_12" data-name="Path 12" d="M2600.916,1721.923l2.576-13.826h2.308l-2.576,13.826Zm3-17.686a1.557,1.557,0,0,1,1.521-1.605,1.367,1.367,0,0,1,1.377,1.489,1.551,1.551,0,0,1-1.569,1.6A1.339,1.339,0,0,1,2603.919,1704.237Z" transform="translate(-2551.018 -1701.626)" fill="#fff"/>
        <path id="Path_13" data-name="Path 13" d="M2697.888,1783.845a8.954,8.954,0,0,1-3.919.847c-3.47,0-5.188-2.411-5.188-5.348,0-4.717,3.425-9.088,8.274-9.088a6.244,6.244,0,0,1,2.8.627l-.662,1.881a5.084,5.084,0,0,0-2.292-.522c-3.5,0-5.717,3.542-5.717,6.8,0,2.248,1.148,3.7,3.359,3.7a6.954,6.954,0,0,0,3.118-.771Z" transform="translate(-2632.186 -1764.095)" fill="#fff"/>
        <path id="Path_14" data-name="Path 14" d="M2843.476,1721.923l2.576-13.826h2.308l-2.575,13.826Zm3-17.686a1.557,1.557,0,0,1,1.522-1.605,1.366,1.366,0,0,1,1.377,1.489,1.551,1.551,0,0,1-1.569,1.6A1.339,1.339,0,0,1,2846.479,1704.237Z" transform="translate(-2775.088 -1701.626)" fill="#fff"/>
        <path id="Path_15" data-name="Path 15" d="M2929.086,1784.342l1.8-9.8c.3-1.538.484-2.878.636-4.024h2.079l-.348,2.716h.055a5.919,5.919,0,0,1,5-3.03c1.6,0,3.41.946,3.41,3.839a14.363,14.363,0,0,1-.24,2.231l-1.5,8.07h-2.307l1.475-7.988a10.778,10.778,0,0,0,.183-1.77c0-1.387-.521-2.409-2.115-2.409-1.659,0-4,2.027-4.613,5.446l-1.215,6.721Z" transform="translate(-2854.172 -1764.043)" fill="#fff"/>
        <path id="Path_16" data-name="Path 16" d="M3136.244,1784.342a31.534,31.534,0,0,1,.3-3.572h-.06c-1.458,2.872-3.32,3.886-5.223,3.886-2.39,0-3.879-1.946-3.879-4.568,0-4.817,3.457-9.886,9.325-9.886a13.054,13.054,0,0,1,3.641.525l-1.376,7.206a31.914,31.914,0,0,0-.572,6.409Zm1.5-12.057a5.191,5.191,0,0,0-1.6-.2c-3.493,0-6.344,3.723-6.36,7.571-.01,1.546.523,3.051,2.3,3.051,1.935,0,4.2-2.577,4.875-6.254Z" transform="translate(-3037.351 -1764.043)" fill="#fff"/>
        <path id="Path_17" data-name="Path 17" d="M3394.005,1702.929l-3.581,19.268h-2.308l3.576-19.268Z" transform="translate(-3278.208 -1701.9)" fill="#fff"/>
        <path id="Path_18" data-name="Path 18" d="M3474.584,1784.342l1.8-9.8c.3-1.538.483-2.878.636-4.024h2.078l-.348,2.716h.055a5.919,5.919,0,0,1,5-3.03c1.6,0,3.411.946,3.411,3.839a14.245,14.245,0,0,1-.24,2.231l-1.5,8.07h-2.308l1.475-7.988a10.885,10.885,0,0,0,.183-1.77c0-1.387-.522-2.409-2.114-2.409-1.661,0-4,2.027-4.614,5.446l-1.216,6.721Z" transform="translate(-3358.083 -1764.043)" fill="#fff"/>
        <path id="Path_19" data-name="Path 19" d="M3687.287,1725.591l-.693,3.716h3.224l-.361,1.855h-3.227l-1.242,6.721a11.937,11.937,0,0,0-.267,2.207c0,.827.382,1.34,1.276,1.34a4.35,4.35,0,0,0,1.088-.11l-.111,1.866a5.527,5.527,0,0,1-1.788.25,2.536,2.536,0,0,1-2.838-2.682,13.013,13.013,0,0,1,.3-2.594l1.316-7h-1.93l.35-1.855h1.937l.569-3.116Z" transform="translate(-3549.713 -1722.834)" fill="#fff"/>
        <path id="Path_20" data-name="Path 20" d="M3798.047,1783.549a9.316,9.316,0,0,1-4.459,1.093c-3.585,0-5.132-2.5-5.132-5.563,0-4.163,3.016-8.877,7.359-8.877,2.566,0,3.96,1.569,3.962,3.547,0,3.632-3.991,4.587-8.979,4.49a5.858,5.858,0,0,0,.274,2.631,3.042,3.042,0,0,0,3,1.859,7.361,7.361,0,0,0,3.635-.947Zm-2.558-11.5c-2.2,0-3.865,2.2-4.429,4.368,3.636.043,6.481-.453,6.481-2.608C3797.541,1772.67,3796.694,1772.046,3795.489,1772.046Z" transform="translate(-3648.027 -1764.043)" fill="#fff"/>
        <path id="Path_21" data-name="Path 21" d="M3947.946,1787.482a6.926,6.926,0,0,0,3.58.906c2.268,0,4.048-1.18,4.85-4.925l.447-2.068h-.071a5.368,5.368,0,0,1-4.689,2.938c-2.71,0-4.107-2.338-4.111-4.79-.009-4.707,3.343-9.344,8.564-9.344a10.741,10.741,0,0,1,4.328.965l-2.07,11.426c-.541,2.93-1.315,4.949-2.72,6.191a7.053,7.053,0,0,1-4.71,1.534,7.644,7.644,0,0,1-4.044-.978Zm10.368-14.911a5.279,5.279,0,0,0-2.232-.472c-3.376,0-5.7,3.618-5.714,7.033-.01,1.532.53,3.314,2.584,3.314,1.99,0,4-2.57,4.5-5.268Z" transform="translate(-3794.76 -1764.043)" fill="#fff"/>
        <path id="Path_22" data-name="Path 22" d="M4147.406,1784.342l1.648-8.906c.331-1.8.536-3.638.685-4.92h2.038c-.108.961-.219,1.927-.376,3h.081c.886-1.894,2.327-3.319,4.136-3.319a3.914,3.914,0,0,1,.662.052l-.449,2.339a3.321,3.321,0,0,0-.631-.049c-2,0-3.785,2.488-4.369,5.7l-1.114,6.1Z" transform="translate(-3979.612 -1764.043)" fill="#fff"/>
        <path id="Path_23" data-name="Path 23" d="M4270.048,1784.342a31.93,31.93,0,0,1,.3-3.572h-.062c-1.456,2.872-3.318,3.886-5.222,3.886-2.39,0-3.879-1.946-3.879-4.568,0-4.817,3.457-9.886,9.326-9.886a13.035,13.035,0,0,1,3.639.525l-1.376,7.206a32.02,32.02,0,0,0-.571,6.409Zm1.5-12.057a5.18,5.18,0,0,0-1.605-.2c-3.492,0-6.343,3.723-6.357,7.571-.01,1.546.522,3.051,2.3,3.051,1.937,0,4.2-2.577,4.876-6.254Z" transform="translate(-4084.718 -1764.043)" fill="#fff"/>
        <path id="Path_24" data-name="Path 24" d="M4452.983,1709.727l3.776-20.3h2.313l-3.783,20.3Z" transform="translate(-4261.894 -1689.429)" fill="#fff"/>
      </g>
    </g>
  </g>
</svg>
