<svg xmlns="http://www.w3.org/2000/svg" width="124.671" height="44.757" viewBox="0 0 124.671 44.757">
  <g id="Group_4" data-name="Group 4" transform="translate(-432.245 -365.946)">
    <g id="Group_1" data-name="Group 1" transform="translate(432.245 365.946)">
      <path id="Path_1" data-name="Path 1" d="M935.828,365.946h4.724l-1.9,10.014h.1c.665-.965,1.364-1.763,2-2.562l6.221-7.452h5.988l-9.083,9.681,5.19,12.742h-5.19l-3.759-9.748-2.4,2.262-1.431,7.486H931.57Z" transform="translate(-918.173 -365.946)" fill="#0c0d0d"/>
      <path id="Path_2" data-name="Path 2" d="M2195.323,598.333l2.063-10.979c.4-2.063.665-3.859.865-5.29h4.259l-.333,2.695h.067a6.845,6.845,0,0,1,5.722-3.061c2.662,0,4.159,1.63,4.159,4.425a20.367,20.367,0,0,1-.266,2.761l-1.8,9.448h-4.791l1.7-9.016a11.028,11.028,0,0,0,.166-1.83c0-1.131-.4-1.93-1.6-1.93-1.563,0-3.394,1.963-4.059,5.556l-1.364,7.219Z" transform="translate(-2148.017 -575.909)" fill="#0c0d0d"/>
      <path id="Path_3" data-name="Path 3" d="M2907.253,597.4a13.96,13.96,0,0,1-6.055,1.264c-4.658,0-7.053-2.628-7.053-6.854,0-4.957,3.593-10.114,9.482-10.114,3.294,0,5.656,1.83,5.656,4.857,0,4.159-4.026,5.656-10.546,5.489a3.21,3.21,0,0,0,.5,1.663,3.758,3.758,0,0,0,3.127,1.264,10.23,10.23,0,0,0,4.558-1.031Zm-4.225-12.21a4.04,4.04,0,0,0-3.826,3.36c3.726.033,5.589-.5,5.589-1.963,0-.832-.665-1.4-1.763-1.4" transform="translate(-2828.089 -575.911)" fill="#0c0d0d"/>
      <path id="Path_4" data-name="Path 4" d="M3538.56,425.462l-.865,4.558h3.46l-.7,3.626H3537l-1.1,5.523a12.1,12.1,0,0,0-.266,2.063A1.2,1.2,0,0,0,3537,442.6a8.918,8.918,0,0,0,1.331-.067l-.566,3.759a9.412,9.412,0,0,1-2.828.366c-2.861,0-4.225-1.464-4.225-3.493a15.757,15.757,0,0,1,.333-3.028l1.264-6.488h-2.063l.666-3.626h2.1l.665-3.427Z" transform="translate(-3447.12 -423.865)" fill="#0c0d0d"/>
      <path id="Path_5" data-name="Path 5" d="M3930.305,1328.106a2.952,2.952,0,1,1-2.953-2.952,2.952,2.952,0,0,1,2.953,2.952" transform="translate(-3830.702 -1299.417)" fill="#e9e73b"/>
      <path id="Path_6" data-name="Path 6" d="M467.48,617.074v-.057c.27-.21.538-.436.8-.683,2.163-2.029,4.092-4.99,6.255-9.315l5.822-11.677H475.3l-2.961,7.153c-.7,1.763-1.065,2.828-1.431,3.793h-.067c-.133-1.031-.3-2.2-.532-3.859l-1-7.086h-5.057l1.826,8.339c.411,1.878,1.118,3.784,1.348,5.72v.006c.072,1.17-1.286,5.174-8.245,9.123h0a163.193,163.193,0,0,0-26.937,7.828s32.043-8.639,86.159-5.663c2.954.162,5.487-2.595,5.664-5.548-12.488-.2-32.186-1.292-56.588,1.927" transform="translate(-432.245 -589.186)" fill="#0c0d0d"/>
      <path id="Path_7" data-name="Path 7" d="M3964.92,604.783c.032-.935.129-2,.226-3.127h-.1c-1.45,2.611-3.449,3.482-5.286,3.482-2.837,0-4.771-2.192-4.771-5.48,0-5.319,3.514-10.993,11.283-10.993a18.781,18.781,0,0,1,5.223.774l-1.677,8.253a38.166,38.166,0,0,0-.612,7.092Zm1.354-12.475a7.18,7.18,0,0,0-1.257-.129c-3,0-5.19,3.675-5.19,6.608,0,1.547.612,2.611,1.9,2.611,1.386,0,3.095-1.58,3.8-5.448Z" transform="translate(-3860.472 -582.689)" fill="#e9e73b"/>
      <path id="Path_8" data-name="Path 8" d="M4619.8,604.783l1.773-9.381c.451-2.385.645-5.029.806-6.383h4.03c-.1,1.064-.194,2.128-.291,3.224h.1c1.1-2.1,2.869-3.578,5.029-3.578a7.862,7.862,0,0,1,.871.032l-.9,4.513a5.462,5.462,0,0,0-.741-.032c-2.966,0-4.352,2.643-4.932,5.738l-1.1,5.867Z" transform="translate(-4507.44 -582.689)" fill="#e9e73b"/>
    </g>
    <g id="Group_3" data-name="Group 3" transform="translate(472.872 401.457)">
      <g id="Group_2" data-name="Group 2" transform="translate(0 0)">
        <path id="Path_9" data-name="Path 9" d="M1952.131,1709.71l.474-3.662c.086-.647.233-1.64.358-2.295h-.031c-.306.685-.674,1.491-1.035,2.185l-1.966,3.729h-.623l-.489-3.653c-.1-.779-.168-1.566-.213-2.261h-.021c-.14.627-.347,1.651-.5,2.3l-.9,3.66h-.766l1.713-6.781h1.039l.524,3.889c.066.577.142,1.2.159,1.7h.03c.2-.5.485-1.112.77-1.677l2.048-3.912h1.065l-.84,6.781Z" transform="translate(-1946.415 -1702.567)"/>
        <path id="Path_10" data-name="Path 10" d="M2244.247,1774.9a3.278,3.278,0,0,1-1.569.385,1.738,1.738,0,0,1-1.806-1.958c0-1.465,1.062-3.124,2.59-3.124a1.247,1.247,0,0,1,1.395,1.248c0,1.278-1.4,1.614-3.16,1.58a2.063,2.063,0,0,0,.1.926,1.071,1.071,0,0,0,1.056.654,2.586,2.586,0,0,0,1.279-.333Zm-.9-4.048c-.775,0-1.361.776-1.559,1.537,1.279.015,2.281-.16,2.281-.918C2244.068,1771.07,2243.771,1770.85,2243.347,1770.85Z" transform="translate(-2232.97 -1768.034)"/>
        <path id="Path_11" data-name="Path 11" d="M2413.425,1689.429l-1.042,5.6a13.7,13.7,0,0,0-.2,1.542h-.746l.126-.962h-.02a2.029,2.029,0,0,1-1.712,1.073c-.915,0-1.418-.771-1.418-1.771a3.167,3.167,0,0,1,2.937-3.316,2.088,2.088,0,0,1,.838.167l.426-2.334Zm-1.367,3.04a1.387,1.387,0,0,0-.777-.207,2.38,2.38,0,0,0-2.025,2.536c0,.589.2,1.2.9,1.2.625,0,1.384-.733,1.588-1.828Z" transform="translate(-2396.017 -1689.429)"/>
        <path id="Path_12" data-name="Path 12" d="M2600.915,1709.421l.907-4.866h.812l-.907,4.866Zm1.057-6.225a.548.548,0,0,1,.536-.565.481.481,0,0,1,.485.524.546.546,0,0,1-.552.562A.471.471,0,0,1,2601.972,1703.2Z" transform="translate(-2583.354 -1702.278)"/>
        <path id="Path_13" data-name="Path 13" d="M2691.986,1775.039a3.153,3.153,0,0,1-1.379.3,1.734,1.734,0,0,1-1.826-1.882,3.067,3.067,0,0,1,2.912-3.2,2.2,2.2,0,0,1,.987.221l-.233.662a1.788,1.788,0,0,0-.807-.183,2.253,2.253,0,0,0-2.012,2.393c0,.791.4,1.3,1.183,1.3a2.446,2.446,0,0,0,1.1-.271Z" transform="translate(-2668.863 -1768.088)"/>
        <path id="Path_14" data-name="Path 14" d="M2843.475,1709.421l.907-4.866h.812l-.906,4.866Zm1.057-6.225a.548.548,0,0,1,.536-.565.481.481,0,0,1,.485.524.546.546,0,0,1-.552.562A.471.471,0,0,1,2844.532,1703.2Z" transform="translate(-2819.406 -1702.278)"/>
        <path id="Path_15" data-name="Path 15" d="M2929.086,1775.178l.635-3.45c.105-.541.17-1.013.224-1.416h.731l-.123.956h.02a2.083,2.083,0,0,1,1.761-1.067,1.181,1.181,0,0,1,1.2,1.351,5.075,5.075,0,0,1-.084.785l-.528,2.84h-.812l.519-2.811a3.8,3.8,0,0,0,.064-.623c0-.488-.184-.848-.744-.848-.584,0-1.408.713-1.624,1.917l-.428,2.365Z" transform="translate(-2902.72 -1768.034)"/>
        <path id="Path_16" data-name="Path 16" d="M3130.5,1775.178a11.114,11.114,0,0,1,.106-1.257h-.021a2.065,2.065,0,0,1-1.838,1.368,1.427,1.427,0,0,1-1.365-1.608,3.359,3.359,0,0,1,3.282-3.479,4.6,4.6,0,0,1,1.281.185l-.484,2.536a11.246,11.246,0,0,0-.2,2.256Zm.528-4.243a1.829,1.829,0,0,0-.565-.069,2.567,2.567,0,0,0-2.238,2.664c0,.544.184,1.074.811,1.074.681,0,1.479-.907,1.716-2.2Z" transform="translate(-3095.696 -1768.034)"/>
        <path id="Path_17" data-name="Path 17" d="M3390.188,1702.929l-1.26,6.781h-.812l1.259-6.781Z" transform="translate(-3349.433 -1702.567)"/>
        <path id="Path_18" data-name="Path 18" d="M3474.583,1775.178l.635-3.45c.105-.541.17-1.013.224-1.416h.731l-.123.956h.02a2.083,2.083,0,0,1,1.761-1.067,1.181,1.181,0,0,1,1.2,1.351,5.018,5.018,0,0,1-.085.785l-.527,2.84h-.812l.519-2.811a3.83,3.83,0,0,0,.064-.623c0-.488-.184-.848-.744-.848-.585,0-1.408.713-1.624,1.917l-.428,2.365Z" transform="translate(-3433.581 -1768.034)"/>
        <path id="Path_19" data-name="Path 19" d="M3683.88,1725.591l-.244,1.308h1.135l-.127.653h-1.136l-.437,2.366a4.2,4.2,0,0,0-.094.777c0,.291.135.472.449.472a1.53,1.53,0,0,0,.383-.039l-.039.657a1.942,1.942,0,0,1-.629.088.893.893,0,0,1-1-.944,4.6,4.6,0,0,1,.1-.913l.463-2.463h-.679l.123-.653h.682l.2-1.1Z" transform="translate(-3635.461 -1724.621)"/>
        <path id="Path_20" data-name="Path 20" d="M3791.832,1774.9a3.278,3.278,0,0,1-1.569.385,1.737,1.737,0,0,1-1.806-1.958c0-1.465,1.062-3.124,2.59-3.124a1.247,1.247,0,0,1,1.395,1.248c0,1.278-1.4,1.614-3.16,1.58a2.063,2.063,0,0,0,.1.926,1.071,1.071,0,0,0,1.056.654,2.59,2.59,0,0,0,1.279-.333Zm-.9-4.048c-.775,0-1.36.776-1.559,1.537,1.28.015,2.281-.16,2.281-.918C3791.653,1771.07,3791.355,1770.85,3790.931,1770.85Z" transform="translate(-3739.032 -1768.034)"/>
        <path id="Path_21" data-name="Path 21" d="M3947.526,1776.283a2.437,2.437,0,0,0,1.26.319c.8,0,1.425-.415,1.707-1.733l.157-.728h-.025a1.889,1.889,0,0,1-1.65,1.034,1.521,1.521,0,0,1-1.447-1.686,3.143,3.143,0,0,1,3.014-3.288,3.782,3.782,0,0,1,1.523.339l-.729,4.021a3.684,3.684,0,0,1-.958,2.179,2.482,2.482,0,0,1-1.658.54,2.69,2.69,0,0,1-1.423-.344Zm3.649-5.248a1.856,1.856,0,0,0-.786-.166,2.334,2.334,0,0,0-2.011,2.475c0,.539.187,1.166.91,1.166.7,0,1.408-.9,1.584-1.854Z" transform="translate(-3893.613 -1768.034)"/>
        <path id="Path_22" data-name="Path 22" d="M4147.406,1775.178l.58-3.134c.116-.634.188-1.28.241-1.732h.717c-.038.338-.077.678-.132,1.057h.028a1.735,1.735,0,0,1,1.456-1.168,1.4,1.4,0,0,1,.233.018l-.158.823a1.161,1.161,0,0,0-.222-.017c-.7,0-1.332.875-1.538,2.006l-.392,2.147Z" transform="translate(-4088.351 -1768.034)"/>
        <path id="Path_23" data-name="Path 23" d="M4264.306,1775.178a11.23,11.23,0,0,1,.106-1.257h-.021a2.064,2.064,0,0,1-1.838,1.368,1.427,1.427,0,0,1-1.365-1.608,3.359,3.359,0,0,1,3.282-3.479,4.59,4.59,0,0,1,1.281.185l-.484,2.536a11.282,11.282,0,0,0-.2,2.256Zm.528-4.243a1.825,1.825,0,0,0-.565-.069,2.566,2.566,0,0,0-2.237,2.664c0,.544.184,1.074.81,1.074.682,0,1.479-.907,1.716-2.2Z" transform="translate(-4199.079 -1768.034)"/>
        <path id="Path_24" data-name="Path 24" d="M4452.983,1696.573l1.329-7.144h.814l-1.331,7.144Z" transform="translate(-4385.729 -1689.429)"/>
      </g>
    </g>
  </g>
</svg>
