<svg xmlns="http://www.w3.org/2000/svg" width="1000" height="1001" fill="none" viewBox="0 0 1000 1001">
  <mask id="a" width="1000" height="1001" x="0" y="0" maskUnits="userSpaceOnUse" style="mask-type:luminance">
    <path fill="#fff" d="M500 .84C223.86.84 0 224.7 0 500.84s223.86 500 500 500 500-223.86 500-500S776.14.84 500 .84Z"/>
  </mask>
  <g mask="url(#a)">
    <path fill="#7FB3BE" d="M500 .84C223.86.84 0 224.7 0 500.84s223.86 500 500 500 500-223.86 500-500S776.14.84 500 .84Z"/>
    <mask id="b" width="1000" height="1001" x="0" y="0" maskUnits="userSpaceOnUse" style="mask-type:luminance">
      <path fill="#fff" d="M500 .84C223.86.84 0 224.7 0 500.84s223.86 500 500 500 500-223.86 500-500S776.14.84 500 .84Z"/>
    </mask>
    <g mask="url(#b)">
      <path fill="#162345" d="M839.66 895.3c-12.28 16.26-137.81 139.06-361.17 132.37-207.31-6.21-325.45-157.46-340.28-177.13-.51-5.34-6.94-109.08 22.57-159.48 7.72-13.18 16.92-23.64 31.09-30.09 11.5-5.23 21.92-6.56 33.27-8.33-1.26 16.46-2.28 32.93-3.02 49.41-.99 21.95.99 44.24.13 66.18 14.53-11.86 66.51-40.79 74.02-50.02 5.24-6.43 4.73-18.54 11.5-27.18 6.41-8.19 41.76-31.38 51.74-32.34 1.15-.11 4.17.39 7.8 1.16 6.35 13.28 12.83 26.51 20.15 39.23 25.47 44.24 58.85 87.71 103.81 113.34 42.93-21.32 73.54-62.25 97.8-102.31 9.01-14.88 17.16-30.18 24.92-45.71 27 9.95 51.2 33.25 52.9 58.72.07 1.03.11 2.21 0 3.23 18.85 3.84 37.82 15.16 54.81 24.26 3.17 1.7 8.25.74 9.63 1.51 2.36-34.52 3.41-69.26 3.72-104.03 1.49.27 2.98.56 4.47.84 1.96.37 4.03.62 6.02 1 10.96 2.14 24.73 3.22 35.1 6.02 63.43 17.11 69.12 129.81 66.2 183.55-.13 2.45-4.7 54.68-7.18 55.79v.01Z"/>
      <path fill="#D99979" d="M556.97 504.5c-.21 14.41-.44 27.84 2.01 42.13-7.42 2.26-13.66 9.4-20.56 13.04-25.05 13.2-48.38 16.38-75.23 6.02l-34.6-20.06c2.21-13.87 2.01-27.15 1-41.12 48.26 31.84 79.1 31.58 127.38 0v-.01Z"/>
      <path fill="#FAB697" d="M492.371 191.58c79.53 0 144 64.47 144 144v12.34c17.55-1.98 35.92 9.1 40.1 26.26 5.4 22.3-11.1 44.6-30.4 50.1-9.4 2.7-17.8.9-22.9-.7-1.7 9.7-8.7 33.2-18.9 49.1-16.1 25-37.8 36.4-47.8 41.5-34.5 17.6-81.7 21.9-124.6 2.1-50.3-23.2-69.4-68.1-73.4-78.2-5.2 1.1-13.8 2.1-22.8-1.4-18.7-7.2-35.5-32-25.6-52.6 3.4-7 9.7-13.5 17.4-17.7 3.44-1.9 7.16-3.1 10.96-3.63-.77-1.74-.54-2.65.38-3.38l-.43-20.84c-1.65-80.67 63.29-146.95 143.97-146.95h10.02Z"/>
      <path fill="#B75F41" d="M478.57 337.341c3.4 10.6 7.1 22.6 1.1 33-2.4 4.2-5.6 7.8-7.8 12.1-2.4 4.8-3.2 10.1-1.1 15.1 2.2 5.4 7.3 9.1 12.9 10.3 2.8.6 4-3.7 1.2-4.3-4.3-1-8.4-3.7-10.1-8-1.7-4.5-.2-9 2.1-12.9 2.4-3.9 5.4-7.4 7.5-11.5 2.4-4.8 3.3-10.3 3-15.7-.4-6.6-2.4-13-4.4-19.3-1-2.8-5.3-1.6-4.4 1.2Z"/>
      <path fill="#FAB697" d="M564.249 566.84c-2.33-6.57-4.09-13.35-5.27-20.21-7.42 2.26-13.66 9.4-20.56 13.04-25.05 13.2-48.38 16.39-75.23 6.02l-34.6-20.06c-3.8 23.81-13.96 44.86-29.7 60.43-12.04 11.9-27.33 20.58-45.53 24.83 4.77 9.56 9.32 19.28 13.95 28.97 6.35 13.28 12.83 26.51 20.15 39.23 25.47 44.24 58.85 87.71 103.81 113.34 42.93-21.32 73.54-62.25 97.8-102.31 9.01-14.88 17.16-30.18 24.92-45.71 5.54-11.09 10.88-22.29 16.2-33.52-32.44-7.76-55.21-33.65-65.94-64.05Z"/>
      <path fill="#162444" d="M735.05 648.1c-.31 34.77-1.36 69.51-3.72 104.03-1.38-.77-6.46.19-9.63-1.51-16.99-9.1-35.96-20.42-54.81-24.26.11-1.02.07-2.2 0-3.23-1.7-25.47-25.9-48.77-52.9-58.72 5.54-11.09 10.88-22.29 16.2-33.52 14.03 3.35 33.96 5.2 49.15 8.02 1.81.34 4.21-.33 6.02 0 16.52 3.05 33.16 6.06 49.69 9.19Zm-367.739 11.76c-3.63-.77-6.65-1.27-7.8-1.16-9.98.96-45.33 24.15-51.74 32.34-6.77 8.64-6.26 20.75-11.5 27.18-7.51 9.23-59.49 38.16-74.02 50.02.86-21.94-1.12-44.23-.13-66.18.74-16.48 1.76-32.95 3.02-49.41 3.2-.5 6.47-1.03 9.86-1.7 2.54-.5 5.51-1.52 8.03-2.01 18.93-3.64 38.19-6.5 57.17-10.03 4.93-.91 10.91-1.03 16.05-2.01 11.71-2.23 26.19-3.47 37.11-6.01 4.77 9.56 9.32 19.28 13.95 28.97Z"/>
      <path fill="#162344" d="M541.349 319.61c10.65-3.14 12.8 18.77 1.78 18.73-8.14-.03-9.09-16.58-1.78-18.73Zm-107.808 0c10.65-3.14 12.8 18.77 1.78 18.73-8.14-.03-9.09-16.58-1.78-18.73Z"/>
      <path fill="#5D382D" d="M404.59 304c-1.32-1.66.14-4.83.27-5.1 6.5-13.67 53.86-7.24 53.99-3.92 0 3.53-7.92 2.79-12.46 3.6-9.21 1.64-10.89.28-19.02 1.33-13.32 1.72-20.55 6.9-22.78 4.1V304Zm165.68 0c1.32-1.66-.14-4.83-.27-5.1-6.5-13.67-53.86-7.24-53.99-3.92 0 3.53 7.92 2.79 12.46 3.6 9.21 1.64 10.89.28 19.02 1.33 13.32 1.72 20.55 6.9 22.78 4.1V304Z"/>
    </g>
    <path fill="#5D382D" d="M696.07 571.91c9.02-14.91 21.02-24.49 23.07-43.54.63-5.82-.58-12.52-4.77-20.84-6.28-12.47-26.27-28.84-27.45-42.92-2.62-31.13 47.75-34.9 14.49-81.72-5.78-8.13-32.59-33.73-34.31-39.62-2.79-9.55-2.1-31.66-4.58-43.75-10-48.91-50.06-148-104.85-149.81-4.63-.15-18.1 3.78-19.83 3.3-.63-.17-7.64-7.73-9.91-9.08-71.43-42.45-175.87 25.23-202.45 101.94-13.04 37.61-6.94 51.93-5.34 88.32 1.55 35.2-33.87 49.33-35.84 70.99-2.29 25.24 26.33 47.63 22.88 69.33-1.94 12.16-24.58 27.98-31.26 38.79-5.15 8.33-6.79 15.17-6.25 21.14 2.2 24.16 21.48 38.77 29.12 52.32 11.05 19.59 5.38 62.57-69.71 165.71 24.26-2.21 82.48-11.4 135.56-61.35 54.12-50.92 73.25-116.31 75.22-133.67 1.9-16.78 2.29-36.32 2.29-36.32-.09-5.42-1.07-11.35 0-16.51-17.38-14.15-37.44-37.53-46.52-59.02-2.48-5.88-8.44-30.01-9.91-32.19-2.22-3.27-18.08-6.31-21.38-8.47-3.84-2.51-7.84-4.79-11.06-8.33-9.5-10.45-19.17-51.02 1.93-52.94 3.57 18.93 14 15.18 24.31 30.35-1.53-8.62-3.79-27.7 3.43-49.11 2.4-7.12 8.53-24.61 23.87-36.64 6.72-5.27 12.51-7.37 23.47-11.36 17.64-6.42 20.31-3.64 35.45-9.09 7.18-2.59 20.1-7.38 33.5-19.26 2.21-1.96 33.57-28.02 37.46-42.73.39-1.48.67-4.33.76-4.54-.85 1.82 10.1 27.19 11.17 30.7 8.97 29.58 18.8 56.97 34.81 82.63 2.21 3.54 4.49 7.01 6.85 10.42 9.17 13.24 26.29 20.67 24.58 39.27 8.09-6.58 6.67-26.43 18.68-19.81 10.49 5.78 6.92 29.51 3.81 39.62-1.43 1.8-2.46 4.27-3.59 6.32-6.9 12.57-12.84 14.35-25.64 18.3-12.63 3.9-10.61 16.8-15 28.62-10.03 27.01-25.48 46.91-46.52 64.79-.7 10.43-1.15 24.93 0 42.12 2.04 30.39 5.4 80.49 35.22 121.29 23.43 32.05 52.35 43.51 80.14 54.53 41 16.25 87.99 21.29 91.37 10.22 3.7-12.1-50.37-25.1-64.41-75.83-.78-2.83-13.03-49.24 7.13-82.58l.01.01Zm-69.01-229.88a.856.856 0 0 1-.33-.3c.09.13.2.23.33.3Zm3.36-.42Z"/>
    <path fill="#DD8CAC" d="M516.619 449.399c1.88 5.7-9.6 17-22.4 19.08-13.51 2.2-28.64-5.85-28.44-12.02.2-6.32 16.49-10.77 26.7-11.77 1.35-.13 21.92-2.01 24.14 4.71Z"/>
    <path fill="#B75F41" d="M524.23 442.19c-13.59 12.3-33.28 17.18-51.15 13.5-5.11-1.05-10.06-2.78-14.68-5.21-2.28-1.2-4.3 2.25-2.02 3.45 17.55 9.24 39.19 9.05 56.93.41 5-2.43 9.62-5.59 13.74-9.32 1.91-1.73-.92-4.55-2.83-2.83h.01Z"/>
    <path fill="#3F4E6B" d="M290.181 848.39c-1.25-4.99-8.96-2.88-7.71 2.13 6.66 26.71 8.29 54.25 4.97 81.56-.62 5.1 7.39 5.05 8 0 3.4-28 1.57-56.33-5.26-83.69Zm421.159-24.5c-14.44 36.64-20.67 76.17-18.26 115.48.31 5.11 8.32 5.15 8 0-2.37-38.69 3.77-77.29 17.97-113.35 1.89-4.79-5.85-6.87-7.71-2.13Z"/>
  </g>
</svg>
