<svg version="1.1" id="Layer_1" xmlns="http://www.w3.org/2000/svg" xmlns:xlink="http://www.w3.org/1999/xlink" x="0px" y="0px" viewBox="0 0 257 38" style="enable-background:new 0 0 257 38;" xml:space="preserve">
			<style type="text/css">
				.st0-nav-logo{fill:#D4161A;}
				.st1-nav-logo{fill:#7C7C7C;}
			</style>
			<g>
				<polygon class="st0-nav-logo" points="37,37.4 0,0 0,15.1 22.2,37.5 &#9;"/>
				<polygon class="st0-nav-logo" points="18.5,37.4 0,18.7 0,37.4 &#9;"/>
				<polygon class="st0-nav-logo" points="18.5,0 37.1,18.8 29.4,26.1 3.6,0 &#9;"/>
			</g>
			<g>
				<rect x="252.2" y="7.8" class="st1-nav-logo" width="4.8" height="29.9"/>
				<path class="st1-nav-logo" d="M71.5,37.5l-9.9-9.9c5.2-0.3,9.4-4.7,9.4-10c0-5.5-4.5-10-10-10H45.7v29.9h4.8V23.3l14.2,14.2H71.5z&#xA;&#9;&#9;&#9;&#9;&#9; M50.5,22.8V12.4H61c2.9,0,5.2,2.3,5.2,5.2c0,2.9-2.3,5.2-5.2,5.2H50.5z"/>
				<polygon class="st1-nav-logo" points="73.6,37.8 91.5,37.8 91.5,33 78.4,33 78.4,25.1 89.6,25.1 89.6,20.3 78.4,20.3 78.4,12.4 91.5,12.4 &#xA;&#9;&#9;&#9;&#9;&#9;91.5,7.6 73.6,7.6 &#9;"/>
				<path class="st1-nav-logo" d="M218.1,7.6l-13.8,29.9h5.3l2.2-4.8H227l2.1,4.8h5.3L221,7.6H218.1z M214,28l5.5-12l5.3,12H214z"/>
				<path class="st1-nav-logo" d="M178.9,37.5l-9.9-9.9c5.2-0.3,9.4-4.7,9.4-10c0-5.5-4.5-10-10-10h-15.3v29.9h4.8V23.3l14.2,14.2H178.9z&#xA;&#9;&#9;&#9;&#9;&#9; M157.9,22.8V12.4h10.5c2.9,0,5.2,2.3,5.2,5.2c0,2.9-2.3,5.2-5.2,5.2H157.9z"/>
				<path class="st1-nav-logo" d="M135.2,7.1c-8.5,0-15.4,6.9-15.4,15.4S126.7,38,135.2,38c8.5,0,15.4-6.9,15.4-15.4S143.7,7.1,135.2,7.1z&#xA;&#9;&#9;&#9;&#9;&#9; M135.2,33.2c-5.8,0-10.6-4.8-10.6-10.6s4.8-10.6,10.6-10.6c5.8,0,10.6,4.8,10.6,10.6S141.1,33.2,135.2,33.2z"/>
				<path class="st1-nav-logo" d="M107.9,33.2c-5.7,0-10.4-4.8-10.4-10.6s4.7-10.6,10.4-10.6c3.3,0,6.3,1.5,8.3,4.2l3.8-2.9&#xA;&#9;&#9;&#9;&#9;&#9;c-2.9-3.9-7.3-6.1-12.1-6.1c-8.4,0-15.2,6.9-15.2,15.4S99.5,38,107.9,38c4.9,0,9.5-2.4,12.4-6.5l-3.9-2.8&#xA;&#9;&#9;&#9;&#9;&#9;C114.4,31.5,111.3,33.2,107.9,33.2z"/>
				<path class="st1-nav-logo" d="M207.1,22.7c0-8.3-6.8-15.1-15.1-15.1h-10.6v30.1H192C200.3,37.7,207.1,31,207.1,22.7z M192,32.9h-5.8V12.4&#xA;&#9;&#9;&#9;&#9;&#9;h5.8c5.7,0,10.3,4.6,10.3,10.3C202.3,28.3,197.7,32.9,192,32.9z"/>
				<polygon class="st1-nav-logo" points="228.3,12.6 236.9,12.6 236.9,37.7 241.7,37.7 241.7,12.6 250.2,12.6 250.2,7.8 228.3,7.8 &#9;"/>
			</g>
			</svg>